<svg id="visual" viewBox="0 0 1920 1080" width="1920" height="1080" xmlns="http://www.w3.org/2000/svg" xmlns:xlink="http://www.w3.org/1999/xlink" version="1.1"><path d="M0 185L35.5 181.3C71 177.7 142 170.3 213.2 195.5C284.3 220.7 355.7 278.3 426.8 300C498 321.7 569 307.3 640 280.3C711 253.3 782 213.7 853.2 197.3C924.3 181 995.7 188 1066.8 216.8C1138 245.7 1209 296.3 1280 300C1351 303.7 1422 260.3 1493.2 247.7C1564.3 235 1635.7 253 1706.8 244C1778 235 1849 199 1884.5 181L1920 163L1920 0L1884.5 0C1849 0 1778 0 1706.8 0C1635.7 0 1564.3 0 1493.2 0C1422 0 1351 0 1280 0C1209 0 1138 0 1066.8 0C995.7 0 924.3 0 853.2 0C782 0 711 0 640 0C569 0 498 0 426.8 0C355.7 0 284.3 0 213.2 0C142 0 71 0 35.5 0L0 0Z" fill="#ffffff"></path><path d="M0 260L35.5 252.8C71 245.7 142 231.3 213.2 251.2C284.3 271 355.7 325 426.8 344.8C498 364.7 569 350.3 640 334.2C711 318 782 300 853.2 294.5C924.3 289 995.7 296 1066.8 315.8C1138 335.7 1209 368.3 1280 368.3C1351 368.3 1422 335.7 1493.2 330.2C1564.3 324.7 1635.7 346.3 1706.8 337.3C1778 328.3 1849 288.7 1884.5 268.8L1920 249L1920 161L1884.5 179C1849 197 1778 233 1706.8 242C1635.7 251 1564.3 233 1493.2 245.7C1422 258.3 1351 301.7 1280 298C1209 294.3 1138 243.7 1066.8 214.8C995.7 186 924.3 179 853.2 195.3C782 211.7 711 251.3 640 278.3C569 305.3 498 319.7 426.8 298C355.7 276.3 284.3 218.7 213.2 193.5C142 168.3 71 175.7 35.5 179.3L0 183Z" fill="#ffbaa4"></path><path d="M0 368L35.5 366.2C71 364.3 142 360.7 213.2 380.5C284.3 400.3 355.7 443.7 426.8 469C498 494.3 569 501.7 640 490.8C711 480 782 451 853.2 431.2C924.3 411.3 995.7 400.7 1066.8 416.8C1138 433 1209 476 1280 485C1351 494 1422 469 1493.2 467.3C1564.3 465.7 1635.7 487.3 1706.8 472.8C1778 458.3 1849 407.7 1884.5 382.3L1920 357L1920 247L1884.5 266.8C1849 286.7 1778 326.3 1706.8 335.3C1635.7 344.3 1564.3 322.7 1493.2 328.2C1422 333.7 1351 366.3 1280 366.3C1209 366.3 1138 333.7 1066.8 313.8C995.7 294 924.3 287 853.2 292.5C782 298 711 316 640 332.2C569 348.3 498 362.7 426.8 342.8C355.7 323 284.3 269 213.2 249.2C142 229.3 71 243.7 35.5 250.8L0 258Z" fill="#ff724e"></path><path d="M0 509L35.5 518C71 527 142 545 213.2 557.5C284.3 570 355.7 577 426.8 598.5C498 620 569 656 640 643.5C711 631 782 570 853.2 537.7C924.3 505.3 995.7 501.7 1066.8 525C1138 548.3 1209 598.7 1280 616.7C1351 634.7 1422 620.3 1493.2 625.7C1564.3 631 1635.7 656 1706.8 647C1778 638 1849 595 1884.5 573.5L1920 552L1920 355L1884.5 380.3C1849 405.7 1778 456.3 1706.8 470.8C1635.7 485.3 1564.3 463.7 1493.2 465.3C1422 467 1351 492 1280 483C1209 474 1138 431 1066.8 414.8C995.7 398.7 924.3 409.3 853.2 429.2C782 449 711 478 640 488.8C569 499.7 498 492.3 426.8 467C355.7 441.7 284.3 398.3 213.2 378.5C142 358.7 71 362.3 35.5 364.2L0 366Z" fill="#ff0000"></path><path d="M0 811L35.5 820C71 829 142 847 213.2 847C284.3 847 355.7 829 426.8 825.3C498 821.7 569 832.3 640 843.2C711 854 782 865 853.2 875.8C924.3 886.7 995.7 897.3 1066.8 886.5C1138 875.7 1209 843.3 1280 834.3C1351 825.3 1422 839.7 1493.2 850.5C1564.3 861.3 1635.7 868.7 1706.8 865.2C1778 861.7 1849 847.3 1884.5 840.2L1920 833L1920 550L1884.5 571.5C1849 593 1778 636 1706.8 645C1635.7 654 1564.3 629 1493.2 623.7C1422 618.3 1351 632.7 1280 614.7C1209 596.7 1138 546.3 1066.8 523C995.7 499.7 924.3 503.3 853.2 535.7C782 568 711 629 640 641.5C569 654 498 618 426.8 596.5C355.7 575 284.3 568 213.2 555.5C142 543 71 525 35.5 516L0 507Z" fill="#ff0000"></path><path d="M0 887L35.5 896C71 905 142 923 213.2 919.3C284.3 915.7 355.7 890.3 426.8 892C498 893.7 569 922.3 640 938.5C711 954.7 782 958.3 853.2 962C924.3 965.7 995.7 969.3 1066.8 960.3C1138 951.3 1209 929.7 1280 920.7C1351 911.7 1422 915.3 1493.2 922.5C1564.3 929.7 1635.7 940.3 1706.8 944C1778 947.7 1849 944.3 1884.5 942.7L1920 941L1920 831L1884.5 838.2C1849 845.3 1778 859.7 1706.8 863.2C1635.7 866.7 1564.3 859.3 1493.2 848.5C1422 837.7 1351 823.3 1280 832.3C1209 841.3 1138 873.7 1066.8 884.5C995.7 895.3 924.3 884.7 853.2 873.8C782 863 711 852 640 841.2C569 830.3 498 819.7 426.8 823.3C355.7 827 284.3 845 213.2 845C142 845 71 827 35.5 818L0 809Z" fill="#ff724e"></path><path d="M0 995L35.5 998.5C71 1002 142 1009 213.2 1010.7C284.3 1012.3 355.7 1008.7 426.8 1010.5C498 1012.3 569 1019.7 640 1025.2C711 1030.7 782 1034.3 853.2 1034.3C924.3 1034.3 995.7 1030.7 1066.8 1021.7C1138 1012.7 1209 998.3 1280 998.3C1351 998.3 1422 1012.7 1493.2 1019.8C1564.3 1027 1635.7 1027 1706.8 1023.3C1778 1019.7 1849 1012.3 1884.5 1008.7L1920 1005L1920 939L1884.5 940.7C1849 942.3 1778 945.7 1706.8 942C1635.7 938.3 1564.3 927.7 1493.2 920.5C1422 913.3 1351 909.7 1280 918.7C1209 927.7 1138 949.3 1066.8 958.3C995.7 967.3 924.3 963.7 853.2 960C782 956.3 711 952.7 640 936.5C569 920.3 498 891.7 426.8 890C355.7 888.3 284.3 913.7 213.2 917.3C142 921 71 903 35.5 894L0 885Z" fill="#ffbaa4"></path><path d="M0 1081L35.5 1081C71 1081 142 1081 213.2 1081C284.3 1081 355.7 1081 426.8 1081C498 1081 569 1081 640 1081C711 1081 782 1081 853.2 1081C924.3 1081 995.7 1081 1066.8 1081C1138 1081 1209 1081 1280 1081C1351 1081 1422 1081 1493.2 1081C1564.3 1081 1635.7 1081 1706.8 1081C1778 1081 1849 1081 1884.5 1081L1920 1081L1920 1003L1884.5 1006.7C1849 1010.3 1778 1017.7 1706.8 1021.3C1635.7 1025 1564.3 1025 1493.2 1017.8C1422 1010.7 1351 996.3 1280 996.3C1209 996.3 1138 1010.7 1066.8 1019.7C995.7 1028.7 924.3 1032.3 853.2 1032.3C782 1032.3 711 1028.7 640 1023.2C569 1017.7 498 1010.3 426.8 1008.5C355.7 1006.7 284.3 1010.3 213.2 1008.7C142 1007 71 1000 35.5 996.5L0 993Z" fill="#ffffff"></path></svg>