<svg id="visual" viewBox="0 0 900 600" width="900" height="600" xmlns="http://www.w3.org/2000/svg" xmlns:xlink="http://www.w3.org/1999/xlink" version="1.1"><rect x="0" y="0" width="900" height="600" fill="#ffffff"></rect><path d="M0 265L21.5 269C43 273 86 281 128.8 301.7C171.7 322.3 214.3 355.7 257.2 364.2C300 372.7 343 356.3 385.8 336C428.7 315.7 471.3 291.3 514.2 283.5C557 275.7 600 284.3 642.8 299.5C685.7 314.7 728.3 336.3 771.2 348.8C814 361.3 857 364.7 878.5 366.3L900 368L900 0L878.5 0C857 0 814 0 771.2 0C728.3 0 685.7 0 642.8 0C600 0 557 0 514.2 0C471.3 0 428.7 0 385.8 0C343 0 300 0 257.2 0C214.3 0 171.7 0 128.8 0C86 0 43 0 21.5 0L0 0Z" fill="#ff756b"></path><path d="M0 247L21.5 243.3C43 239.7 86 232.3 128.8 243.7C171.7 255 214.3 285 257.2 296.7C300 308.3 343 301.7 385.8 283.5C428.7 265.3 471.3 235.7 514.2 226C557 216.3 600 226.7 642.8 239.2C685.7 251.7 728.3 266.3 771.2 281.5C814 296.7 857 312.3 878.5 320.2L900 328L900 0L878.5 0C857 0 814 0 771.2 0C728.3 0 685.7 0 642.8 0C600 0 557 0 514.2 0C471.3 0 428.7 0 385.8 0C343 0 300 0 257.2 0C214.3 0 171.7 0 128.8 0C86 0 43 0 21.5 0L0 0Z" fill="#ff6256"></path><path d="M0 221L21.5 208.5C43 196 86 171 128.8 161.7C171.7 152.3 214.3 158.7 257.2 173.5C300 188.3 343 211.7 385.8 212.8C428.7 214 471.3 193 514.2 191C557 189 600 206 642.8 212.2C685.7 218.3 728.3 213.7 771.2 206C814 198.3 857 187.7 878.5 182.3L900 177L900 0L878.5 0C857 0 814 0 771.2 0C728.3 0 685.7 0 642.8 0C600 0 557 0 514.2 0C471.3 0 428.7 0 385.8 0C343 0 300 0 257.2 0C214.3 0 171.7 0 128.8 0C86 0 43 0 21.5 0L0 0Z" fill="#ff4d3f"></path><path d="M0 132L21.5 125C43 118 86 104 128.8 106.8C171.7 109.7 214.3 129.3 257.2 138C300 146.7 343 144.3 385.8 149C428.7 153.7 471.3 165.3 514.2 160.5C557 155.7 600 134.3 642.8 129.3C685.7 124.3 728.3 135.7 771.2 146.3C814 157 857 167 878.5 172L900 177L900 0L878.5 0C857 0 814 0 771.2 0C728.3 0 685.7 0 642.8 0C600 0 557 0 514.2 0C471.3 0 428.7 0 385.8 0C343 0 300 0 257.2 0C214.3 0 171.7 0 128.8 0C86 0 43 0 21.5 0L0 0Z" fill="#ff3426"></path><path d="M0 96L21.5 91.8C43 87.7 86 79.3 128.8 82.2C171.7 85 214.3 99 257.2 100.7C300 102.3 343 91.7 385.8 79.8C428.7 68 471.3 55 514.2 49.7C557 44.3 600 46.7 642.8 58.2C685.7 69.7 728.3 90.3 771.2 90C814 89.7 857 68.3 878.5 57.7L900 47L900 0L878.5 0C857 0 814 0 771.2 0C728.3 0 685.7 0 642.8 0C600 0 557 0 514.2 0C471.3 0 428.7 0 385.8 0C343 0 300 0 257.2 0C214.3 0 171.7 0 128.8 0C86 0 43 0 21.5 0L0 0Z" fill="#ff0000"></path></svg>